<mxfile host="app.diagrams.net" agent="Mozilla/5.0 (Windows NT 10.0; Win64; x64) AppleWebKit/537.36 (KHTML, like Gecko) Chrome/131.0.0.0 Safari/537.36" version="24.8.6">
  <diagram id="C5RBs43oDa-KdzZeNtuy" name="Page-1">
    <mxGraphModel dx="949" dy="949" grid="1" gridSize="10" guides="1" tooltips="1" connect="1" arrows="1" fold="1" page="1" pageScale="1" pageWidth="827" pageHeight="1169" math="0" shadow="0">
      <root>
        <mxCell id="WIyWlLk6GJQsqaUBKTNV-0" />
        <mxCell id="WIyWlLk6GJQsqaUBKTNV-1" parent="WIyWlLk6GJQsqaUBKTNV-0" />
        <mxCell id="qzWXxWGdOjRyc9-7FXH--0" value="&lt;span style=&quot;font-size:14.0pt;line-height:150%;&lt;br/&gt;font-family:&amp;quot;Times New Roman&amp;quot;,serif;mso-fareast-font-family:&amp;quot;Times New Roman&amp;quot;;&lt;br/&gt;mso-fareast-theme-font:minor-fareast;mso-ansi-language:RU;mso-fareast-language:&lt;br/&gt;RU;mso-bidi-language:AR-SA&quot;&gt;Пользовательский интерфейс&lt;/span&gt;" style="swimlane;whiteSpace=wrap;html=1;align=right;" vertex="1" parent="WIyWlLk6GJQsqaUBKTNV-1">
          <mxGeometry x="270" y="330" width="526" height="200" as="geometry" />
        </mxCell>
        <mxCell id="qzWXxWGdOjRyc9-7FXH--2" value="интерфейс ввода исходного кода на Pascal" style="whiteSpace=wrap;html=1;aspect=fixed;" vertex="1" parent="qzWXxWGdOjRyc9-7FXH--0">
          <mxGeometry x="20" y="56.5" width="100" height="100" as="geometry" />
        </mxCell>
        <mxCell id="qzWXxWGdOjRyc9-7FXH--3" value="интерфейс вывода сообщений об ошибках" style="whiteSpace=wrap;html=1;aspect=fixed;" vertex="1" parent="qzWXxWGdOjRyc9-7FXH--0">
          <mxGeometry x="150" y="55" width="100" height="100" as="geometry" />
        </mxCell>
        <mxCell id="qzWXxWGdOjRyc9-7FXH--4" value="интерфейс выбора основных функций" style="whiteSpace=wrap;html=1;aspect=fixed;" vertex="1" parent="qzWXxWGdOjRyc9-7FXH--0">
          <mxGeometry x="280" y="56.5" width="100" height="100" as="geometry" />
        </mxCell>
        <mxCell id="qzWXxWGdOjRyc9-7FXH--5" value="Интерфейс вывода целевого кода на python" style="whiteSpace=wrap;html=1;aspect=fixed;" vertex="1" parent="qzWXxWGdOjRyc9-7FXH--0">
          <mxGeometry x="404" y="56.5" width="100" height="100" as="geometry" />
        </mxCell>
        <mxCell id="qzWXxWGdOjRyc9-7FXH--12" style="edgeStyle=orthogonalEdgeStyle;rounded=0;orthogonalLoop=1;jettySize=auto;html=1;entryX=0.5;entryY=1;entryDx=0;entryDy=0;" edge="1" parent="WIyWlLk6GJQsqaUBKTNV-1" target="qzWXxWGdOjRyc9-7FXH--2">
          <mxGeometry relative="1" as="geometry">
            <mxPoint x="500" y="591" as="sourcePoint" />
          </mxGeometry>
        </mxCell>
        <mxCell id="qzWXxWGdOjRyc9-7FXH--13" value="код на Pascal" style="edgeLabel;html=1;align=center;verticalAlign=middle;resizable=0;points=[];" vertex="1" connectable="0" parent="qzWXxWGdOjRyc9-7FXH--12">
          <mxGeometry x="-0.1986" y="-1" relative="1" as="geometry">
            <mxPoint x="6" as="offset" />
          </mxGeometry>
        </mxCell>
        <mxCell id="qzWXxWGdOjRyc9-7FXH--7" value="Actor" style="shape=umlActor;verticalLabelPosition=bottom;verticalAlign=top;html=1;outlineConnect=0;" vertex="1" parent="WIyWlLk6GJQsqaUBKTNV-1">
          <mxGeometry x="520" y="570" width="30" height="60" as="geometry" />
        </mxCell>
        <mxCell id="qzWXxWGdOjRyc9-7FXH--9" style="edgeStyle=orthogonalEdgeStyle;rounded=0;orthogonalLoop=1;jettySize=auto;html=1;entryX=0.433;entryY=0.999;entryDx=0;entryDy=0;entryPerimeter=0;" edge="1" parent="WIyWlLk6GJQsqaUBKTNV-1" target="qzWXxWGdOjRyc9-7FXH--4">
          <mxGeometry relative="1" as="geometry">
            <mxPoint x="570" y="590" as="sourcePoint" />
            <Array as="points">
              <mxPoint x="593" y="590" />
              <mxPoint x="593" y="580" />
              <mxPoint x="593" y="580" />
            </Array>
          </mxGeometry>
        </mxCell>
        <mxCell id="qzWXxWGdOjRyc9-7FXH--10" value="Выбор функции" style="edgeLabel;html=1;align=center;verticalAlign=middle;resizable=0;points=[];" vertex="1" connectable="0" parent="qzWXxWGdOjRyc9-7FXH--9">
          <mxGeometry x="0.0703" relative="1" as="geometry">
            <mxPoint as="offset" />
          </mxGeometry>
        </mxCell>
        <mxCell id="qzWXxWGdOjRyc9-7FXH--14" style="edgeStyle=orthogonalEdgeStyle;rounded=0;orthogonalLoop=1;jettySize=auto;html=1;exitX=0.5;exitY=1;exitDx=0;exitDy=0;" edge="1" parent="WIyWlLk6GJQsqaUBKTNV-1" source="qzWXxWGdOjRyc9-7FXH--5" target="qzWXxWGdOjRyc9-7FXH--7">
          <mxGeometry relative="1" as="geometry">
            <Array as="points">
              <mxPoint x="724" y="610" />
            </Array>
          </mxGeometry>
        </mxCell>
        <mxCell id="qzWXxWGdOjRyc9-7FXH--15" value="код на Python" style="edgeLabel;html=1;align=center;verticalAlign=middle;resizable=0;points=[];" vertex="1" connectable="0" parent="qzWXxWGdOjRyc9-7FXH--14">
          <mxGeometry x="0.3194" relative="1" as="geometry">
            <mxPoint as="offset" />
          </mxGeometry>
        </mxCell>
        <mxCell id="qzWXxWGdOjRyc9-7FXH--20" style="edgeStyle=orthogonalEdgeStyle;rounded=0;orthogonalLoop=1;jettySize=auto;html=1;exitX=1;exitY=0.5;exitDx=0;exitDy=0;entryX=0.25;entryY=0;entryDx=0;entryDy=0;" edge="1" parent="WIyWlLk6GJQsqaUBKTNV-1" source="qzWXxWGdOjRyc9-7FXH--16" target="qzWXxWGdOjRyc9-7FXH--3">
          <mxGeometry relative="1" as="geometry" />
        </mxCell>
        <mxCell id="qzWXxWGdOjRyc9-7FXH--21" value="&lt;font style=&quot;font-size: 12px;&quot;&gt;сообщения об ошибках&lt;/font&gt;" style="edgeLabel;html=1;align=center;verticalAlign=middle;resizable=0;points=[];" vertex="1" connectable="0" parent="qzWXxWGdOjRyc9-7FXH--20">
          <mxGeometry x="-0.1226" y="-1" relative="1" as="geometry">
            <mxPoint x="36" y="43" as="offset" />
          </mxGeometry>
        </mxCell>
        <mxCell id="qzWXxWGdOjRyc9-7FXH--23" value="последовательность лексем&amp;nbsp;" style="edgeStyle=orthogonalEdgeStyle;rounded=0;orthogonalLoop=1;jettySize=auto;html=1;exitX=0.5;exitY=0;exitDx=0;exitDy=0;entryX=0;entryY=0.5;entryDx=0;entryDy=0;" edge="1" parent="WIyWlLk6GJQsqaUBKTNV-1" source="qzWXxWGdOjRyc9-7FXH--16" target="qzWXxWGdOjRyc9-7FXH--22">
          <mxGeometry x="-0.125" y="-20" relative="1" as="geometry">
            <mxPoint as="offset" />
          </mxGeometry>
        </mxCell>
        <mxCell id="qzWXxWGdOjRyc9-7FXH--16" value="&lt;span style=&quot;line-height: 107%;&quot;&gt;&lt;font style=&quot;font-size: 12px;&quot;&gt;подсистема лексического анализа&lt;/font&gt;&lt;/span&gt;" style="whiteSpace=wrap;html=1;aspect=fixed;" vertex="1" parent="WIyWlLk6GJQsqaUBKTNV-1">
          <mxGeometry x="290" y="180" width="100" height="100" as="geometry" />
        </mxCell>
        <mxCell id="qzWXxWGdOjRyc9-7FXH--18" style="edgeStyle=orthogonalEdgeStyle;rounded=0;orthogonalLoop=1;jettySize=auto;html=1;exitX=0.5;exitY=0;exitDx=0;exitDy=0;entryX=0.5;entryY=1;entryDx=0;entryDy=0;" edge="1" parent="WIyWlLk6GJQsqaUBKTNV-1" source="qzWXxWGdOjRyc9-7FXH--2" target="qzWXxWGdOjRyc9-7FXH--16">
          <mxGeometry relative="1" as="geometry" />
        </mxCell>
        <mxCell id="qzWXxWGdOjRyc9-7FXH--19" value="код на Pascal" style="edgeLabel;html=1;align=center;verticalAlign=middle;resizable=0;points=[];" vertex="1" connectable="0" parent="qzWXxWGdOjRyc9-7FXH--18">
          <mxGeometry x="0.3486" relative="1" as="geometry">
            <mxPoint y="-5" as="offset" />
          </mxGeometry>
        </mxCell>
        <mxCell id="qzWXxWGdOjRyc9-7FXH--24" style="edgeStyle=orthogonalEdgeStyle;rounded=0;orthogonalLoop=1;jettySize=auto;html=1;exitX=0.5;exitY=1;exitDx=0;exitDy=0;" edge="1" parent="WIyWlLk6GJQsqaUBKTNV-1" source="qzWXxWGdOjRyc9-7FXH--22" target="qzWXxWGdOjRyc9-7FXH--3">
          <mxGeometry relative="1" as="geometry" />
        </mxCell>
        <mxCell id="qzWXxWGdOjRyc9-7FXH--26" style="edgeStyle=orthogonalEdgeStyle;rounded=0;orthogonalLoop=1;jettySize=auto;html=1;exitX=1;exitY=0.5;exitDx=0;exitDy=0;entryX=0;entryY=0.5;entryDx=0;entryDy=0;" edge="1" parent="WIyWlLk6GJQsqaUBKTNV-1" source="qzWXxWGdOjRyc9-7FXH--22" target="qzWXxWGdOjRyc9-7FXH--25">
          <mxGeometry relative="1" as="geometry" />
        </mxCell>
        <mxCell id="qzWXxWGdOjRyc9-7FXH--27" value="дерево&lt;div&gt;разбора&lt;/div&gt;" style="edgeLabel;html=1;align=center;verticalAlign=middle;resizable=0;points=[];" vertex="1" connectable="0" parent="qzWXxWGdOjRyc9-7FXH--26">
          <mxGeometry x="-0.2741" y="1" relative="1" as="geometry">
            <mxPoint x="8" y="-19" as="offset" />
          </mxGeometry>
        </mxCell>
        <mxCell id="qzWXxWGdOjRyc9-7FXH--22" value="&lt;span style=&quot;line-height: 107%;&quot;&gt;&lt;font style=&quot;font-size: 12px;&quot;&gt;подсистема синтаксического анализа&lt;/font&gt;&lt;/span&gt;" style="whiteSpace=wrap;html=1;aspect=fixed;" vertex="1" parent="WIyWlLk6GJQsqaUBKTNV-1">
          <mxGeometry x="440" y="90" width="100" height="100" as="geometry" />
        </mxCell>
        <mxCell id="qzWXxWGdOjRyc9-7FXH--29" style="edgeStyle=orthogonalEdgeStyle;rounded=0;orthogonalLoop=1;jettySize=auto;html=1;exitX=1;exitY=0.5;exitDx=0;exitDy=0;entryX=0.5;entryY=0;entryDx=0;entryDy=0;" edge="1" parent="WIyWlLk6GJQsqaUBKTNV-1" source="qzWXxWGdOjRyc9-7FXH--25" target="qzWXxWGdOjRyc9-7FXH--28">
          <mxGeometry relative="1" as="geometry" />
        </mxCell>
        <mxCell id="qzWXxWGdOjRyc9-7FXH--31" value="дерево&lt;div&gt;разбора&lt;/div&gt;" style="edgeLabel;html=1;align=center;verticalAlign=middle;resizable=0;points=[];" vertex="1" connectable="0" parent="qzWXxWGdOjRyc9-7FXH--29">
          <mxGeometry x="-0.3062" relative="1" as="geometry">
            <mxPoint y="-20" as="offset" />
          </mxGeometry>
        </mxCell>
        <mxCell id="qzWXxWGdOjRyc9-7FXH--33" style="edgeStyle=orthogonalEdgeStyle;rounded=0;orthogonalLoop=1;jettySize=auto;html=1;exitX=0.5;exitY=1;exitDx=0;exitDy=0;entryX=0.75;entryY=0;entryDx=0;entryDy=0;" edge="1" parent="WIyWlLk6GJQsqaUBKTNV-1" source="qzWXxWGdOjRyc9-7FXH--25" target="qzWXxWGdOjRyc9-7FXH--3">
          <mxGeometry relative="1" as="geometry" />
        </mxCell>
        <mxCell id="qzWXxWGdOjRyc9-7FXH--25" value="&lt;span style=&quot;line-height: 107%;&quot;&gt;&lt;font style=&quot;font-size: 12px;&quot;&gt;подсистема семантического анализа&lt;/font&gt;&lt;/span&gt;" style="whiteSpace=wrap;html=1;aspect=fixed;" vertex="1" parent="WIyWlLk6GJQsqaUBKTNV-1">
          <mxGeometry x="600" y="90" width="100" height="100" as="geometry" />
        </mxCell>
        <mxCell id="qzWXxWGdOjRyc9-7FXH--30" style="edgeStyle=orthogonalEdgeStyle;rounded=0;orthogonalLoop=1;jettySize=auto;html=1;exitX=0.5;exitY=1;exitDx=0;exitDy=0;entryX=0.5;entryY=0;entryDx=0;entryDy=0;" edge="1" parent="WIyWlLk6GJQsqaUBKTNV-1" source="qzWXxWGdOjRyc9-7FXH--28" target="qzWXxWGdOjRyc9-7FXH--5">
          <mxGeometry relative="1" as="geometry">
            <Array as="points">
              <mxPoint x="770" y="310" />
              <mxPoint x="724" y="310" />
            </Array>
          </mxGeometry>
        </mxCell>
        <mxCell id="qzWXxWGdOjRyc9-7FXH--32" value="код на Python" style="edgeLabel;html=1;align=center;verticalAlign=middle;resizable=0;points=[];" vertex="1" connectable="0" parent="qzWXxWGdOjRyc9-7FXH--30">
          <mxGeometry x="-0.7471" y="-2" relative="1" as="geometry">
            <mxPoint as="offset" />
          </mxGeometry>
        </mxCell>
        <mxCell id="qzWXxWGdOjRyc9-7FXH--28" value="&lt;span style=&quot;line-height: 107%;&quot;&gt;&lt;font style=&quot;font-size: 12px;&quot;&gt;подсистема генерации кода&lt;/font&gt;&lt;/span&gt;" style="whiteSpace=wrap;html=1;aspect=fixed;" vertex="1" parent="WIyWlLk6GJQsqaUBKTNV-1">
          <mxGeometry x="720" y="170" width="100" height="100" as="geometry" />
        </mxCell>
      </root>
    </mxGraphModel>
  </diagram>
</mxfile>
